<mxfile host="app.diagrams.net" modified="2022-08-16T16:05:16.936Z" agent="5.0 (Windows NT 10.0; Win64; x64) AppleWebKit/537.36 (KHTML, like Gecko) Chrome/104.0.0.0 Safari/537.36" etag="BOGIlcNBYRJfFdqXJLtc" version="20.2.4" type="github">
  <diagram id="wi_vhIjVOXCjrbam6hF1" name="Page-1">
    <mxGraphModel dx="1673" dy="934" grid="0" gridSize="10" guides="1" tooltips="1" connect="1" arrows="1" fold="1" page="1" pageScale="1" pageWidth="827" pageHeight="1169" math="0" shadow="0">
      <root>
        <mxCell id="0" />
        <mxCell id="1" parent="0" />
        <mxCell id="-wPtG7KYPPW0DH68cqsK-1" value="Diagramme&amp;nbsp; de séquence gestion departements&amp;nbsp;" style="shape=umlFrame;whiteSpace=wrap;html=1;rounded=0;shadow=0;glass=0;sketch=0;fontSize=15;fillColor=none;width=470;height=26;" parent="1" vertex="1">
          <mxGeometry x="26" y="14" width="1751" height="1017" as="geometry" />
        </mxCell>
        <mxCell id="-wPtG7KYPPW0DH68cqsK-42" value="Loop: pour chaque&lt;br&gt;&lt;div style=&quot;text-align: right;&quot;&gt;&lt;span style=&quot;background-color: initial;&quot;&gt;&amp;nbsp;&lt;/span&gt;&lt;span style=&quot;background-color: initial;&quot;&gt;departement&lt;/span&gt;&lt;/div&gt;" style="shape=umlFrame;whiteSpace=wrap;html=1;rounded=0;shadow=0;glass=0;sketch=0;fontSize=15;fillColor=none;width=144;height=45;align=left;" parent="1" vertex="1">
          <mxGeometry x="408" y="380" width="1325" height="164" as="geometry" />
        </mxCell>
        <mxCell id="-wPtG7KYPPW0DH68cqsK-2" value=":Departement&lt;br&gt;Controler" style="shape=umlLifeline;perimeter=lifelinePerimeter;whiteSpace=wrap;html=1;container=1;collapsible=0;recursiveResize=0;outlineConnect=0;rounded=0;shadow=0;glass=0;sketch=0;fillColor=none;fontSize=15;fontColor=#CC0000;strokeColor=#CC0000;" parent="1" vertex="1">
          <mxGeometry x="692" y="65" width="130" height="950" as="geometry" />
        </mxCell>
        <mxCell id="-wPtG7KYPPW0DH68cqsK-3" value="" style="html=1;points=[];perimeter=orthogonalPerimeter;rounded=0;shadow=0;glass=0;sketch=0;fontSize=15;fillColor=none;" parent="-wPtG7KYPPW0DH68cqsK-2" vertex="1">
          <mxGeometry x="59" y="241" width="10" height="69" as="geometry" />
        </mxCell>
        <mxCell id="-wPtG7KYPPW0DH68cqsK-4" value="" style="shape=umlLifeline;participant=umlActor;perimeter=lifelinePerimeter;whiteSpace=wrap;html=1;container=1;collapsible=0;recursiveResize=0;verticalAlign=top;spacingTop=36;outlineConnect=0;fillColor=none;size=32;sketch=0;shadow=0;rounded=0;glass=0;" parent="1" vertex="1">
          <mxGeometry x="110" y="65" width="20" height="950" as="geometry" />
        </mxCell>
        <mxCell id="-wPtG7KYPPW0DH68cqsK-5" value="&lt;span style=&quot;color: rgb(0, 0, 0); font-family: Helvetica; font-size: 12px; font-style: normal; font-variant-ligatures: normal; font-variant-caps: normal; font-weight: 400; letter-spacing: normal; orphans: 2; text-align: center; text-indent: 0px; text-transform: none; widows: 2; word-spacing: 0px; -webkit-text-stroke-width: 0px; background-color: rgb(248, 249, 250); text-decoration-thickness: initial; text-decoration-style: initial; text-decoration-color: initial; float: none; display: inline !important;&quot;&gt;Administrateur&lt;/span&gt;" style="text;whiteSpace=wrap;html=1;" parent="1" vertex="1">
          <mxGeometry x="72" y="91" width="105" height="36" as="geometry" />
        </mxCell>
        <mxCell id="-wPtG7KYPPW0DH68cqsK-6" value=":Departement&lt;br&gt;Service" style="shape=umlLifeline;perimeter=lifelinePerimeter;whiteSpace=wrap;html=1;container=1;collapsible=0;recursiveResize=0;outlineConnect=0;rounded=0;shadow=0;glass=0;sketch=0;fillColor=none;fontSize=15;fontColor=#CC0000;strokeColor=#CC0000;" parent="1" vertex="1">
          <mxGeometry x="946" y="65" width="130" height="950" as="geometry" />
        </mxCell>
        <mxCell id="-wPtG7KYPPW0DH68cqsK-7" value="" style="html=1;points=[];perimeter=orthogonalPerimeter;rounded=0;shadow=0;glass=0;sketch=0;fontSize=15;fillColor=none;" parent="-wPtG7KYPPW0DH68cqsK-6" vertex="1">
          <mxGeometry x="59" y="245" width="10" height="56" as="geometry" />
        </mxCell>
        <mxCell id="-wPtG7KYPPW0DH68cqsK-8" value="" style="shape=umlLifeline;participant=umlEntity;perimeter=lifelinePerimeter;whiteSpace=wrap;html=1;container=1;collapsible=0;recursiveResize=0;verticalAlign=top;spacingTop=36;outlineConnect=0;rounded=0;shadow=0;glass=0;sketch=0;fontSize=15;fillColor=none;fontColor=#CC0000;strokeColor=#CC0000;" parent="1" vertex="1">
          <mxGeometry x="1151" y="65" width="65" height="950" as="geometry" />
        </mxCell>
        <mxCell id="-wPtG7KYPPW0DH68cqsK-9" value="" style="html=1;points=[];perimeter=orthogonalPerimeter;rounded=0;shadow=0;glass=0;sketch=0;fontSize=15;fillColor=none;" parent="-wPtG7KYPPW0DH68cqsK-8" vertex="1">
          <mxGeometry x="27" y="252" width="10" height="45" as="geometry" />
        </mxCell>
        <mxCell id="-wPtG7KYPPW0DH68cqsK-10" value="&lt;span style=&quot;font-family: Helvetica; font-size: 15px; font-style: normal; font-variant-ligatures: normal; font-variant-caps: normal; font-weight: 400; letter-spacing: normal; orphans: 2; text-indent: 0px; text-transform: none; widows: 2; word-spacing: 0px; -webkit-text-stroke-width: 0px; background-color: rgb(248, 249, 250); text-decoration-thickness: initial; text-decoration-style: initial; text-decoration-color: initial; float: none; display: inline !important;&quot;&gt;Base de donnée&lt;br&gt;Departement&lt;br&gt;&lt;/span&gt;" style="text;whiteSpace=wrap;html=1;fontSize=15;align=center;fillColor=default;fontColor=#CC0000;" parent="-wPtG7KYPPW0DH68cqsK-8" vertex="1">
          <mxGeometry x="-21" y="45" width="119" height="45" as="geometry" />
        </mxCell>
        <mxCell id="-wPtG7KYPPW0DH68cqsK-11" value="" style="shape=umlLifeline;participant=umlBoundary;perimeter=lifelinePerimeter;whiteSpace=wrap;html=1;container=1;collapsible=0;recursiveResize=0;verticalAlign=top;spacingTop=36;outlineConnect=0;rounded=0;shadow=0;glass=0;sketch=0;fontSize=15;fillColor=none;fontColor=#CC6600;strokeColor=#CC0000;" parent="1" vertex="1">
          <mxGeometry x="292" y="65" width="65" height="950" as="geometry" />
        </mxCell>
        <mxCell id="-wPtG7KYPPW0DH68cqsK-12" value="&lt;span style=&quot;font-family: Helvetica; font-size: 15px; font-style: normal; font-variant-ligatures: normal; font-variant-caps: normal; font-weight: 400; letter-spacing: normal; orphans: 2; text-indent: 0px; text-transform: none; widows: 2; word-spacing: 0px; -webkit-text-stroke-width: 0px; background-color: rgb(248, 249, 250); text-decoration-thickness: initial; text-decoration-style: initial; text-decoration-color: initial; float: none; display: inline !important;&quot;&gt;Interface IHM&lt;/span&gt;&lt;br style=&quot;font-family: Helvetica; font-size: 15px; font-style: normal; font-variant-ligatures: normal; font-variant-caps: normal; font-weight: 400; letter-spacing: normal; orphans: 2; text-indent: 0px; text-transform: none; widows: 2; word-spacing: 0px; -webkit-text-stroke-width: 0px; background-color: rgb(248, 249, 250); text-decoration-thickness: initial; text-decoration-style: initial; text-decoration-color: initial;&quot;&gt;Departement" style="text;whiteSpace=wrap;html=1;fontSize=15;align=center;fillColor=default;fontColor=#CC0000;" parent="-wPtG7KYPPW0DH68cqsK-11" vertex="1">
          <mxGeometry x="-24" y="45" width="122" height="45" as="geometry" />
        </mxCell>
        <mxCell id="-wPtG7KYPPW0DH68cqsK-13" value="" style="html=1;points=[];perimeter=orthogonalPerimeter;rounded=0;shadow=0;glass=0;sketch=0;fontSize=15;fillColor=none;" parent="-wPtG7KYPPW0DH68cqsK-11" vertex="1">
          <mxGeometry x="27.5" y="228" width="10" height="336" as="geometry" />
        </mxCell>
        <mxCell id="-wPtG7KYPPW0DH68cqsK-14" value=":Employee&lt;br&gt;Controler" style="shape=umlLifeline;perimeter=lifelinePerimeter;whiteSpace=wrap;html=1;container=1;collapsible=0;recursiveResize=0;outlineConnect=0;rounded=0;shadow=0;glass=0;sketch=0;fillColor=none;fontSize=15;strokeColor=#0000CC;fontColor=#0000CC;" parent="1" vertex="1">
          <mxGeometry x="1253" y="65" width="130" height="950" as="geometry" />
        </mxCell>
        <mxCell id="-wPtG7KYPPW0DH68cqsK-15" value="" style="html=1;points=[];perimeter=orthogonalPerimeter;rounded=0;shadow=0;glass=0;sketch=0;fontSize=15;fillColor=none;" parent="-wPtG7KYPPW0DH68cqsK-14" vertex="1">
          <mxGeometry x="59" y="334" width="10" height="86" as="geometry" />
        </mxCell>
        <mxCell id="-wPtG7KYPPW0DH68cqsK-16" value="" style="shape=umlLifeline;participant=umlEntity;perimeter=lifelinePerimeter;whiteSpace=wrap;html=1;container=1;collapsible=0;recursiveResize=0;verticalAlign=top;spacingTop=36;outlineConnect=0;rounded=0;shadow=0;glass=0;sketch=0;fontSize=15;fillColor=none;strokeColor=#0000CC;" parent="1" vertex="1">
          <mxGeometry x="1677" y="60" width="65" height="950" as="geometry" />
        </mxCell>
        <mxCell id="-wPtG7KYPPW0DH68cqsK-17" value="Base de donnée&lt;br&gt;Personnel" style="text;whiteSpace=wrap;html=1;fontSize=15;align=center;fillColor=default;fontColor=#0000CC;" parent="-wPtG7KYPPW0DH68cqsK-16" vertex="1">
          <mxGeometry x="-33" y="45" width="127" height="48" as="geometry" />
        </mxCell>
        <mxCell id="-wPtG7KYPPW0DH68cqsK-18" value="" style="html=1;points=[];perimeter=orthogonalPerimeter;rounded=0;shadow=0;glass=0;sketch=0;fontSize=15;fillColor=none;" parent="-wPtG7KYPPW0DH68cqsK-16" vertex="1">
          <mxGeometry x="27.5" y="352.5" width="10" height="55" as="geometry" />
        </mxCell>
        <mxCell id="-wPtG7KYPPW0DH68cqsK-19" value=":Employee&lt;br&gt;Service" style="shape=umlLifeline;perimeter=lifelinePerimeter;whiteSpace=wrap;html=1;container=1;collapsible=0;recursiveResize=0;outlineConnect=0;rounded=0;shadow=0;glass=0;sketch=0;fillColor=none;fontSize=15;strokeColor=#0000CC;fontColor=#0000CC;" parent="1" vertex="1">
          <mxGeometry x="1484" y="65" width="130" height="950" as="geometry" />
        </mxCell>
        <mxCell id="-wPtG7KYPPW0DH68cqsK-20" value="" style="html=1;points=[];perimeter=orthogonalPerimeter;rounded=0;shadow=0;glass=0;sketch=0;fontSize=15;fillColor=none;" parent="-wPtG7KYPPW0DH68cqsK-19" vertex="1">
          <mxGeometry x="59" y="337" width="10" height="70" as="geometry" />
        </mxCell>
        <mxCell id="-wPtG7KYPPW0DH68cqsK-21" value="" style="edgeStyle=elbowEdgeStyle;fontSize=12;html=1;endArrow=blockThin;endFill=1;rounded=0;" parent="1" source="-wPtG7KYPPW0DH68cqsK-4" target="-wPtG7KYPPW0DH68cqsK-13" edge="1">
          <mxGeometry width="160" relative="1" as="geometry">
            <mxPoint x="119.32352941176464" y="288" as="sourcePoint" />
            <mxPoint x="258.5" y="288" as="targetPoint" />
            <Array as="points">
              <mxPoint x="159" y="303" />
              <mxPoint x="190" y="288" />
              <mxPoint x="171" y="261" />
            </Array>
          </mxGeometry>
        </mxCell>
        <mxCell id="-wPtG7KYPPW0DH68cqsK-22" value="demander liste departement" style="edgeLabel;html=1;align=center;verticalAlign=middle;resizable=0;points=[];fontSize=15;" parent="-wPtG7KYPPW0DH68cqsK-21" vertex="1" connectable="0">
          <mxGeometry x="-0.3952" relative="1" as="geometry">
            <mxPoint x="37" y="-13" as="offset" />
          </mxGeometry>
        </mxCell>
        <mxCell id="-wPtG7KYPPW0DH68cqsK-23" value="" style="edgeStyle=elbowEdgeStyle;fontSize=12;html=1;endArrow=blockThin;endFill=1;rounded=0;" parent="1" source="-wPtG7KYPPW0DH68cqsK-44" target="-wPtG7KYPPW0DH68cqsK-3" edge="1">
          <mxGeometry width="160" relative="1" as="geometry">
            <mxPoint x="592" y="318" as="sourcePoint" />
            <mxPoint x="751" y="318" as="targetPoint" />
            <Array as="points">
              <mxPoint x="712" y="318" />
              <mxPoint x="595" y="312" />
              <mxPoint x="577" y="325" />
            </Array>
          </mxGeometry>
        </mxCell>
        <mxCell id="-wPtG7KYPPW0DH68cqsK-24" value="query()" style="edgeLabel;html=1;align=center;verticalAlign=middle;resizable=0;points=[];fontSize=15;" parent="-wPtG7KYPPW0DH68cqsK-23" vertex="1" connectable="0">
          <mxGeometry x="-0.2194" y="3" relative="1" as="geometry">
            <mxPoint x="13" y="-9" as="offset" />
          </mxGeometry>
        </mxCell>
        <mxCell id="-wPtG7KYPPW0DH68cqsK-25" value="" style="edgeStyle=elbowEdgeStyle;fontSize=12;html=1;endArrow=blockThin;endFill=1;rounded=0;" parent="1" source="-wPtG7KYPPW0DH68cqsK-3" target="-wPtG7KYPPW0DH68cqsK-7" edge="1">
          <mxGeometry width="160" relative="1" as="geometry">
            <mxPoint x="761" y="328" as="sourcePoint" />
            <mxPoint x="1004.9999999999995" y="328" as="targetPoint" />
            <Array as="points">
              <mxPoint x="904" y="328" />
              <mxPoint x="753" y="313" />
              <mxPoint x="678" y="342" />
            </Array>
          </mxGeometry>
        </mxCell>
        <mxCell id="-wPtG7KYPPW0DH68cqsK-26" value="getAllDepartments()" style="edgeLabel;html=1;align=center;verticalAlign=middle;resizable=0;points=[];fontSize=15;" parent="-wPtG7KYPPW0DH68cqsK-25" vertex="1" connectable="0">
          <mxGeometry x="0.1239" relative="1" as="geometry">
            <mxPoint x="-14" y="-11" as="offset" />
          </mxGeometry>
        </mxCell>
        <mxCell id="-wPtG7KYPPW0DH68cqsK-27" value="" style="edgeStyle=elbowEdgeStyle;fontSize=12;html=1;endArrow=blockThin;endFill=1;rounded=0;" parent="1" source="-wPtG7KYPPW0DH68cqsK-7" target="-wPtG7KYPPW0DH68cqsK-9" edge="1">
          <mxGeometry width="160" relative="1" as="geometry">
            <mxPoint x="625" y="355" as="sourcePoint" />
            <mxPoint x="785" y="355" as="targetPoint" />
            <Array as="points">
              <mxPoint x="1166" y="332" />
              <mxPoint x="1020" y="313" />
              <mxPoint x="917" y="318" />
            </Array>
          </mxGeometry>
        </mxCell>
        <mxCell id="-wPtG7KYPPW0DH68cqsK-28" value="findAll()" style="edgeLabel;html=1;align=center;verticalAlign=middle;resizable=0;points=[];fontSize=15;labelBackgroundColor=none;" parent="-wPtG7KYPPW0DH68cqsK-27" vertex="1" connectable="0">
          <mxGeometry x="-0.3561" y="2" relative="1" as="geometry">
            <mxPoint x="23" y="-9" as="offset" />
          </mxGeometry>
        </mxCell>
        <mxCell id="-wPtG7KYPPW0DH68cqsK-29" value="liste departements" style="html=1;verticalAlign=bottom;endArrow=open;dashed=1;endSize=8;rounded=0;fontSize=15;labelBackgroundColor=none;" parent="1" source="-wPtG7KYPPW0DH68cqsK-9" target="-wPtG7KYPPW0DH68cqsK-7" edge="1">
          <mxGeometry relative="1" as="geometry">
            <mxPoint x="1178" y="354" as="sourcePoint" />
            <mxPoint x="1015" y="354" as="targetPoint" />
            <Array as="points">
              <mxPoint x="1103" y="354" />
            </Array>
          </mxGeometry>
        </mxCell>
        <mxCell id="-wPtG7KYPPW0DH68cqsK-30" value="liste departements" style="html=1;verticalAlign=bottom;endArrow=open;dashed=1;endSize=8;rounded=0;fontSize=15;" parent="1" source="-wPtG7KYPPW0DH68cqsK-7" target="-wPtG7KYPPW0DH68cqsK-3" edge="1">
          <mxGeometry relative="1" as="geometry">
            <mxPoint x="1005" y="361" as="sourcePoint" />
            <mxPoint x="761" y="361" as="targetPoint" />
            <Array as="points">
              <mxPoint x="909" y="361" />
            </Array>
          </mxGeometry>
        </mxCell>
        <mxCell id="-wPtG7KYPPW0DH68cqsK-31" value="liste departements" style="html=1;verticalAlign=bottom;endArrow=open;dashed=1;endSize=8;rounded=0;fontSize=15;" parent="1" source="-wPtG7KYPPW0DH68cqsK-3" target="-wPtG7KYPPW0DH68cqsK-44" edge="1">
          <mxGeometry x="-0.0189" y="-3" relative="1" as="geometry">
            <mxPoint x="751" y="368" as="sourcePoint" />
            <mxPoint x="592" y="368" as="targetPoint" />
            <Array as="points">
              <mxPoint x="597" y="368" />
            </Array>
            <mxPoint as="offset" />
          </mxGeometry>
        </mxCell>
        <mxCell id="-wPtG7KYPPW0DH68cqsK-32" value="" style="edgeStyle=elbowEdgeStyle;fontSize=12;html=1;endArrow=blockThin;endFill=1;rounded=0;" parent="1" source="-wPtG7KYPPW0DH68cqsK-44" target="-wPtG7KYPPW0DH68cqsK-15" edge="1">
          <mxGeometry width="160" relative="1" as="geometry">
            <mxPoint x="463" y="410" as="sourcePoint" />
            <mxPoint x="1136.5000000000005" y="410" as="targetPoint" />
            <Array as="points">
              <mxPoint x="1024" y="410" />
            </Array>
          </mxGeometry>
        </mxCell>
        <mxCell id="-wPtG7KYPPW0DH68cqsK-33" value="loadManager(id)" style="edgeLabel;html=1;align=center;verticalAlign=middle;resizable=0;points=[];fontSize=15;" parent="-wPtG7KYPPW0DH68cqsK-32" vertex="1" connectable="0">
          <mxGeometry x="-0.2561" y="-3" relative="1" as="geometry">
            <mxPoint x="45" y="-15" as="offset" />
          </mxGeometry>
        </mxCell>
        <mxCell id="-wPtG7KYPPW0DH68cqsK-34" value="" style="fontSize=12;html=1;endArrow=blockThin;endFill=1;rounded=0;" parent="1" source="-wPtG7KYPPW0DH68cqsK-15" target="-wPtG7KYPPW0DH68cqsK-20" edge="1">
          <mxGeometry width="160" relative="1" as="geometry">
            <mxPoint x="1068" y="389" as="sourcePoint" />
            <mxPoint x="1228" y="389" as="targetPoint" />
            <Array as="points">
              <mxPoint x="1414" y="416" />
            </Array>
          </mxGeometry>
        </mxCell>
        <mxCell id="-wPtG7KYPPW0DH68cqsK-35" value="getEmployee(id)" style="edgeLabel;html=1;align=center;verticalAlign=middle;resizable=0;points=[];fontSize=15;" parent="-wPtG7KYPPW0DH68cqsK-34" vertex="1" connectable="0">
          <mxGeometry x="-0.2535" y="1" relative="1" as="geometry">
            <mxPoint x="20" y="-11" as="offset" />
          </mxGeometry>
        </mxCell>
        <mxCell id="-wPtG7KYPPW0DH68cqsK-36" value="" style="edgeStyle=elbowEdgeStyle;fontSize=12;html=1;endArrow=blockThin;endFill=1;rounded=0;" parent="1" source="-wPtG7KYPPW0DH68cqsK-20" target="-wPtG7KYPPW0DH68cqsK-18" edge="1">
          <mxGeometry width="160" relative="1" as="geometry">
            <mxPoint x="1216" y="396" as="sourcePoint" />
            <mxPoint x="1376" y="396" as="targetPoint" />
            <Array as="points">
              <mxPoint x="1593" y="420" />
              <mxPoint x="1485" y="409" />
            </Array>
          </mxGeometry>
        </mxCell>
        <mxCell id="-wPtG7KYPPW0DH68cqsK-37" value="findById(id)" style="edgeLabel;html=1;align=center;verticalAlign=middle;resizable=0;points=[];fontSize=15;" parent="-wPtG7KYPPW0DH68cqsK-36" vertex="1" connectable="0">
          <mxGeometry x="-0.2685" y="1" relative="1" as="geometry">
            <mxPoint x="15" y="-11" as="offset" />
          </mxGeometry>
        </mxCell>
        <mxCell id="-wPtG7KYPPW0DH68cqsK-38" value="employee" style="html=1;verticalAlign=bottom;endArrow=open;dashed=1;endSize=8;rounded=0;fontSize=15;" parent="1" source="-wPtG7KYPPW0DH68cqsK-18" target="-wPtG7KYPPW0DH68cqsK-20" edge="1">
          <mxGeometry relative="1" as="geometry">
            <mxPoint x="1662" y="460" as="sourcePoint" />
            <mxPoint x="1372" y="462" as="targetPoint" />
            <Array as="points">
              <mxPoint x="1600" y="459" />
            </Array>
          </mxGeometry>
        </mxCell>
        <mxCell id="-wPtG7KYPPW0DH68cqsK-39" value="employee" style="html=1;verticalAlign=bottom;endArrow=open;dashed=1;endSize=8;rounded=0;fontSize=15;" parent="1" source="-wPtG7KYPPW0DH68cqsK-20" target="-wPtG7KYPPW0DH68cqsK-15" edge="1">
          <mxGeometry relative="1" as="geometry">
            <mxPoint x="1309" y="471" as="sourcePoint" />
            <mxPoint x="1142" y="471" as="targetPoint" />
            <Array as="points">
              <mxPoint x="1388" y="469" />
            </Array>
          </mxGeometry>
        </mxCell>
        <mxCell id="-wPtG7KYPPW0DH68cqsK-40" value="employee" style="html=1;verticalAlign=bottom;endArrow=open;dashed=1;endSize=8;rounded=0;fontSize=15;startArrow=none;" parent="1" source="-wPtG7KYPPW0DH68cqsK-15" target="-wPtG7KYPPW0DH68cqsK-44" edge="1">
          <mxGeometry x="0.1211" y="-4" relative="1" as="geometry">
            <mxPoint x="1132" y="480.9999999999998" as="sourcePoint" />
            <mxPoint x="463" y="396.5090909090909" as="targetPoint" />
            <Array as="points">
              <mxPoint x="1115" y="482" />
            </Array>
            <mxPoint as="offset" />
          </mxGeometry>
        </mxCell>
        <mxCell id="-wPtG7KYPPW0DH68cqsK-41" value="liste Projets" style="html=1;verticalAlign=bottom;endArrow=open;dashed=1;endSize=8;rounded=0;fontSize=15;" parent="1" source="-wPtG7KYPPW0DH68cqsK-13" target="-wPtG7KYPPW0DH68cqsK-4" edge="1">
          <mxGeometry relative="1" as="geometry">
            <mxPoint x="258.5" y="577" as="sourcePoint" />
            <mxPoint x="119.32352941176464" y="577" as="targetPoint" />
            <Array as="points">
              <mxPoint x="205" y="595" />
            </Array>
          </mxGeometry>
        </mxCell>
        <mxCell id="-wPtG7KYPPW0DH68cqsK-43" value="&lt;span style=&quot;color: rgb(204, 102, 0);&quot;&gt;&amp;lt;&amp;lt;component&amp;gt;&amp;gt;&lt;/span&gt;&lt;br style=&quot;color: rgb(204, 102, 0);&quot;&gt;Departement" style="shape=umlLifeline;perimeter=lifelinePerimeter;whiteSpace=wrap;html=1;container=1;collapsible=0;recursiveResize=0;outlineConnect=0;rounded=0;shadow=0;glass=0;sketch=0;fillColor=none;fontSize=15;fontColor=#CC0000;strokeColor=#CC0000;" parent="1" vertex="1">
          <mxGeometry x="509" y="65" width="156" height="950" as="geometry" />
        </mxCell>
        <mxCell id="-wPtG7KYPPW0DH68cqsK-44" value="" style="html=1;points=[];perimeter=orthogonalPerimeter;" parent="-wPtG7KYPPW0DH68cqsK-43" vertex="1">
          <mxGeometry x="73" y="226" width="10" height="287" as="geometry" />
        </mxCell>
        <mxCell id="-wPtG7KYPPW0DH68cqsK-45" value="setManager(employee)" style="edgeStyle=orthogonalEdgeStyle;html=1;align=left;spacingLeft=2;endArrow=block;rounded=0;fontSize=15;" parent="-wPtG7KYPPW0DH68cqsK-43" source="-wPtG7KYPPW0DH68cqsK-44" target="-wPtG7KYPPW0DH68cqsK-44" edge="1">
          <mxGeometry relative="1" as="geometry">
            <mxPoint x="-59" y="421" as="sourcePoint" />
            <Array as="points">
              <mxPoint x="114" y="437" />
              <mxPoint x="114" y="465" />
            </Array>
            <mxPoint x="-46" y="452" as="targetPoint" />
          </mxGeometry>
        </mxCell>
        <mxCell id="-wPtG7KYPPW0DH68cqsK-46" value="" style="fontSize=12;html=1;endArrow=blockThin;endFill=1;rounded=0;" parent="1" edge="1">
          <mxGeometry width="160" relative="1" as="geometry">
            <mxPoint x="329.5" y="310" as="sourcePoint" />
            <mxPoint x="582" y="310" as="targetPoint" />
            <Array as="points">
              <mxPoint x="541" y="310" />
            </Array>
          </mxGeometry>
        </mxCell>
        <mxCell id="-wPtG7KYPPW0DH68cqsK-47" value="loadDepartment()" style="edgeLabel;html=1;align=center;verticalAlign=middle;resizable=0;points=[];fontSize=15;" parent="-wPtG7KYPPW0DH68cqsK-46" vertex="1" connectable="0">
          <mxGeometry x="-0.0064" y="-3" relative="1" as="geometry">
            <mxPoint x="-4" y="-16" as="offset" />
          </mxGeometry>
        </mxCell>
        <mxCell id="-wPtG7KYPPW0DH68cqsK-48" value="&lt;span style=&quot;font-size: 15px;&quot;&gt;liste Projets&lt;/span&gt;" style="html=1;verticalAlign=bottom;endArrow=open;dashed=1;endSize=8;rounded=0;" parent="1" source="-wPtG7KYPPW0DH68cqsK-44" target="-wPtG7KYPPW0DH68cqsK-13" edge="1">
          <mxGeometry relative="1" as="geometry">
            <mxPoint x="518" y="479" as="sourcePoint" />
            <mxPoint x="268.5" y="565.0000000000005" as="targetPoint" />
            <Array as="points">
              <mxPoint x="471" y="571" />
            </Array>
          </mxGeometry>
        </mxCell>
        <mxCell id="-wPtG7KYPPW0DH68cqsK-49" value="ref" style="shape=umlFrame;whiteSpace=wrap;html=1;labelBackgroundColor=none;fontSize=15;" parent="1" vertex="1">
          <mxGeometry x="40" y="190" width="1693" height="44" as="geometry" />
        </mxCell>
        <mxCell id="-wPtG7KYPPW0DH68cqsK-50" value="&amp;lt;&amp;lt;Authentification&amp;gt;&amp;gt;" style="text;html=1;strokeColor=none;fillColor=none;align=center;verticalAlign=middle;whiteSpace=wrap;rounded=0;labelBackgroundColor=none;fontSize=15;fontColor=#000000;" parent="1" vertex="1">
          <mxGeometry x="880" y="195" width="60" height="30" as="geometry" />
        </mxCell>
        <mxCell id="-wPtG7KYPPW0DH68cqsK-51" value="ref" style="shape=umlFrame;whiteSpace=wrap;html=1;labelBackgroundColor=none;fontSize=15;" parent="1" vertex="1">
          <mxGeometry x="40" y="645" width="1693" height="55" as="geometry" />
        </mxCell>
        <mxCell id="-wPtG7KYPPW0DH68cqsK-52" value="ajouter departement" style="text;html=1;strokeColor=none;fillColor=none;align=center;verticalAlign=middle;whiteSpace=wrap;rounded=0;labelBackgroundColor=none;fontSize=15;fontColor=#000000;" parent="1" vertex="1">
          <mxGeometry x="780" y="655" width="283" height="30" as="geometry" />
        </mxCell>
        <mxCell id="-wPtG7KYPPW0DH68cqsK-53" value="ref" style="shape=umlFrame;whiteSpace=wrap;html=1;labelBackgroundColor=none;fontSize=15;" parent="1" vertex="1">
          <mxGeometry x="40" y="730" width="1693" height="55" as="geometry" />
        </mxCell>
        <mxCell id="-wPtG7KYPPW0DH68cqsK-54" value="modifier departement" style="text;html=1;strokeColor=none;fillColor=none;align=center;verticalAlign=middle;whiteSpace=wrap;rounded=0;labelBackgroundColor=none;fontSize=15;fontColor=#000000;" parent="1" vertex="1">
          <mxGeometry x="780" y="737" width="283" height="30" as="geometry" />
        </mxCell>
        <mxCell id="-wPtG7KYPPW0DH68cqsK-55" value="ref" style="shape=umlFrame;whiteSpace=wrap;html=1;labelBackgroundColor=none;fontSize=15;" parent="1" vertex="1">
          <mxGeometry x="40" y="815" width="1692" height="55" as="geometry" />
        </mxCell>
        <mxCell id="-wPtG7KYPPW0DH68cqsK-56" value="supprimer departement" style="text;html=1;strokeColor=none;fillColor=none;align=center;verticalAlign=middle;whiteSpace=wrap;rounded=0;labelBackgroundColor=none;fontSize=15;fontColor=#000000;" parent="1" vertex="1">
          <mxGeometry x="780" y="818" width="283" height="30" as="geometry" />
        </mxCell>
        <mxCell id="-wPtG7KYPPW0DH68cqsK-57" value="ref" style="shape=umlFrame;whiteSpace=wrap;html=1;labelBackgroundColor=none;fontSize=15;" parent="1" vertex="1">
          <mxGeometry x="40" y="900" width="1692" height="55" as="geometry" />
        </mxCell>
        <mxCell id="-wPtG7KYPPW0DH68cqsK-58" value="consulter departement" style="text;html=1;strokeColor=none;fillColor=none;align=center;verticalAlign=middle;whiteSpace=wrap;rounded=0;labelBackgroundColor=none;fontSize=15;fontColor=#000000;" parent="1" vertex="1">
          <mxGeometry x="780" y="911" width="283" height="30" as="geometry" />
        </mxCell>
      </root>
    </mxGraphModel>
  </diagram>
</mxfile>
